PathFileType	4	(X/Y/Z)	RBDS015\RBDS015runT25.trc
DataRate	CameraRate	NumFrames	NumMarkers	Units	OrigDataRate	OrigDataStartFrame	OrigNumFrames
150.000000	150.000000	4	33	mm	150.000000	2250	4500
Frame#	Time	L.ASIS			L.Heel.Bottom			L.Heel.Lateral			L.Heel.Top			L.Iliac.Crest			L.MT1			L.MT5			L.PSIS			L.Shank.Bottom.Lateral			L.Shank.Bottom.Medial			L.Shank.Top.Lateral			L.Shank.Top.Medial			L.Thigh.Bottom.Lateral			L.Thigh.Bottom.Medial			L.Thigh.Top.Lateral			L.Thigh.Top.Medial			R.ASIS			R.ASY			R.Heel.Bottom			R.Heel.Lateral			R.Heel.Top			R.Iliac.Crest			R.MT1			R.MT5			R.PSIS			R.Shank.Bottom.Lateral			R.Shank.Bottom.Medial			R.Shank.Top.Lateral			R.Shank.Top.Medial			R.Thigh.Bottom.Lateral			R.Thigh.Bottom.Medial			R.Thigh.Top.Lateral			R.Thigh.Top.Medial			
		X1	Y1	Z1	X2	Y2	Z2	X3	Y3	Z3	X4	Y4	Z4	X5	Y5	Z5	X6	Y6	Z6	X7	Y7	Z7	X8	Y8	Z8	X9	Y9	Z9	X10	Y10	Z10	X11	Y11	Z11	X12	Y12	Z12	X13	Y13	Z13	X14	Y14	Z14	X15	Y15	Z15	X16	Y16	Z16	X17	Y17	Z17	X18	Y18	Z18	X19	Y19	Z19	X20	Y20	Z20	X21	Y21	Z21	X22	Y22	Z22	X23	Y23	Z23	X24	Y24	Z24	X25	Y25	Z25	X26	Y26	Z26	X27	Y27	Z27	X28	Y28	Z28	X29	Y29	Z29	X30	Y30	Z30	X31	Y31	Z31	X32	Y32	Z32	X33	Y33	Z33	

2251	15	2204.348336071095	963.9748408590845	915.426155162252	1633.569428259374	414.4242172937253	925.1770927033111	1656.981177375112	396.3077284095467	883.1895732568588	1675.647263360037	413.4530843406077	927.3220470874699	2145.748535807512	1049.172821746613	867.2355168224167	1685.480075360271	209.7838114984501	953.1701561573158	1672.448863263376	243.8234571702058	844.4308778229146	2021.572546844397	1023.030460437015	963.4105656310649	1808.263658068023	381.4455351916156	868.0605130918482	1795.632586762015	425.8138846241155	890.1497281785746	1885.271003986403	405.0752761171607	857.8113156190378	1875.934506214916	451.7132473350771	881.5809866692996	2154.017086264132	591.7461038130642	850.3104376737226	2093.70877732293	583.1758088108825	881.1968929423826	2135.669113351166	700.5036520157205	842.9996578666752	2072.567416605738	691.1113988088292	877.2004785286551	2189.551968472259	990.2485668942173	1140.873448774065	2196.790184205167	83.42306287918284	1052.232468711312	2014.481530021488	32.67517452085291	1023.96989514864	2036.470829117812	54.69967111304156	1066.916366308042	2027.320879666004	78.65589347193823	1021.675243577095	2101.106671244877	1064.04016255759	1175.884626821613	2231.449932821733	43.23686804687645	1013.392336662849	2175.543891436069	39.17931572248424	1121.526844824402	2010.721091565877	1033.042410341542	1053.72657448086	2127.644446676376	173.4673715788834	1094.127369745778	2082.188049251192	195.30722966269	1070.007964133766	2150.350087803592	248.7941864551285	1115.393197115014	2106.099552437655	269.0988903438013	1091.355517645562	2200.432281893536	648.7045652935732	1179.775820103111	2146.107351738328	624.9105720596305	1136.893296102848	2148.520230805309	744.6582757034037	1189.251885651333	2095.999188083021	722.6234921242703	1149.471513515817	
2252	15.00666666666667	2202.269640090642	963.3887568626308	914.4154845305309	1644.863166828614	410.5198895188153	923.8513016830282	1669.054721931021	392.3587435174169	882.3356709524763	1686.86731861109	410.4982100187951	926.3694131150128	2142.536684425877	1050.057662306023	866.7587780462765	1700.760244214752	207.4343947024778	955.153026534338	1688.053180673144	239.7802592701925	845.7598530100807	2019.917380284714	1023.580367666095	963.956864781399	1821.172992107152	379.199834251575	868.5153618022292	1808.256927064097	423.7162896455101	889.925567666136	1898.191017862983	403.0649286283397	858.3742327759284	1888.426671946299	449.9920104379798	881.4545915083326	2162.497289126122	592.0295954005175	850.7953754062173	2102.257157485521	581.547468229717	881.1882257843955	2140.829012253418	700.1739542554544	843.3876380905998	2077.734014702902	688.7512806735468	876.9302021538476	2188.737290753773	989.8081817120155	1140.102041792779	2180.074889759434	83.23664320908864	1052.560113795721	1997.687415668346	32.8954740206396	1024.027052019596	2019.682851620803	54.84423117621495	1067.078671934453	2010.554364177697	78.90264933094994	1021.918977946004	2100.912404643404	1064.800790044638	1175.962214861482	2214.569816859595	42.98393551905351	1013.604242976968	2158.634345844076	38.90930678824952	1121.76918889946	2009.773594172424	1033.933017108219	1054.261534899901	2112.23407048499	173.0108396668075	1094.410437473259	2067.255964308511	195.5978112726748	1070.126757398108	2136.166850094739	247.8980663428942	1115.65942538499	2092.372634025886	268.9489534771132	1091.544024319981	2193.798778096285	647.2983750769824	1180.113248744618	2138.563555210697	624.296729867115	1138.007020290182	2143.665543672184	744.3855698440912	1189.628584812566	2090.551066842432	723.1473786910663	1150.255546116815	
2253	15.01333333333333	2200.203159367806	964.2528565467483	913.3555890370789	1656.181629481125	405.2492399646939	923.0579253843513	1681.147632157782	387.2391341908774	881.9632811472878	1698.070916462062	406.3807497637422	925.8918640195203	2139.155132478566	1052.16063263389	866.2973753819227	1716.904512859793	204.0472467456632	957.2332373080143	1704.239996411919	234.8359677885118	847.2974188935586	2018.276957290055	1024.728716183336	964.628358779	1834.092419007568	376.5251390627725	869.2159208804171	1820.67313896716	421.0832595951639	890.0504376912789	1910.974876171052	401.0371646078639	859.207732387557	1900.566255883968	448.1390680588836	881.6875836069511	2170.873910840901	593.3779657936243	851.3230482782525	2110.694107794853	580.9668203483598	881.0707933513598	2145.918776076274	700.813876804786	843.8033387743616	2082.833458924845	687.3387372100657	876.5599252880643	2187.98648032045	989.9002049664856	1139.200293330831	2163.323773585603	83.04280609701861	1052.842900108292	1980.833536832933	33.23592744847505	1024.061674482962	2002.848834149308	55.10934253549328	1067.220644453297	1993.749253550558	79.27502855744989	1022.126687774839	2101.180033994783	1066.067028442497	1176.051005404797	2197.632753167099	42.67411163922196	1013.758553282934	2141.664752051219	38.66435914460983	1121.978296576922	2008.842778368221	1035.355058296387	1054.94194445702	2096.668639735524	172.7661040574419	1094.666204538064	2052.138331421158	196.00346181457	1070.202666920614	2121.690232540317	247.2420126949223	1115.904189403351	2078.351625339824	268.9491968054538	1091.647859323486	2186.612573134073	646.2622632633272	1180.356814121004	2130.490282064436	624.1908965830794	1138.959703287292	2138.365343003089	744.5017386141578	1189.939272122859	2084.710432310147	724.171621044096	1150.887182121695	
2254	15.02	2198.198016425929	966.4447998145596	912.3161701086566	1667.526380938496	398.6121736239764	922.8478386217874	1693.24850836262	380.9629497546048	882.1109714510321	1709.249582406843	401.0931570927676	925.9359191900691	2135.717364111392	1055.225902199837	865.9033013257839	1733.883420652441	199.6554831111289	959.3866328835207	1720.9778897085	229.0512605988955	849.028568480985	2016.682446365222	1026.41313800955	965.3633396471226	1846.970769429892	373.4283032644153	870.1757801307549	1832.832844086992	417.9172709039083	890.5504085886542	1923.556502908337	398.9973415707729	860.3068166519005	1912.294007978786	446.1508756180901	882.2875019658788	2179.079512380348	595.768792745502	851.8840641887308	2118.95653703974	581.4337225964215	880.8474475148325	2150.909160133347	702.4099340504657	844.224235415635	2087.837005224224	686.8846361941052	876.0722236882648	2187.2768260768	990.492324884956	1138.254109892258	2146.55855395809	82.8820785017119	1053.10032084744	1963.941012971678	33.77128227315722	1024.100555726146	1985.998171432623	55.55194243295491	1067.365972829389	1976.934437422172	79.83847193299418	1022.329283539939	2101.860289020577	1067.698753856235	1176.128909359614	2180.647845720105	42.36269003234138	1013.872770748886	2124.656948556227	38.468631933308	1122.164127370681	2007.931338657659	1037.239635162695	1055.702046464482	2080.995752870549	172.7969443941497	1094.899777385812	2036.88019534709	196.5943601751794	1070.250105434408	2106.98601365058	246.8966809635555	1116.115784829239	2064.095759447002	269.1713796739426	1091.66324203894	2178.932056813359	645.628672344747	1180.451854399614	2121.988888319683	624.6398904162245	1139.638010807449	2132.668932053515	745.0082721349493	1190.141138457185	2078.55128068124	725.7105721144878	1151.288191766532	
